<?xml version="1.0" standalone="no"?>
<!DOCTYPE svg PUBLIC "-//W3C//DTD SVG 20010904//EN"
 "http://www.w3.org/TR/2001/REC-SVG-20010904/DTD/svg10.dtd">
<svg version="1.0" xmlns="http://www.w3.org/2000/svg"
 width="512.000000pt" height="512.000000pt" viewBox="0 0 512.000000 512.000000"
 preserveAspectRatio="xMidYMid meet">

<g transform="translate(0.000000,512.000000) scale(0.100000,-0.100000)"
fill="#1A7F72" stroke="none">
<path d="M125 5106 c-41 -18 -83 -69 -90 -109 -3 -18 -4 -1126 -3 -2464 l3
-2432 21 -28 c29 -39 82 -73 114 -73 15 0 42 5 60 12 46 16 2961 2446 2978
2481 16 36 16 98 0 134 -8 16 -587 506 -1478 1248 -806 671 -1470 1224 -1477
1228 -24 15 -98 17 -128 3z m1461 -1503 c684 -570 1244 -1039 1244 -1043 0 -8
-2485 -2080 -2494 -2080 -3 0 -6 936 -6 2080 0 1144 3 2080 6 2080 3 0 566
-466 1250 -1037z"/>
<path d="M1980 5101 c-19 -10 -45 -33 -57 -51 -23 -33 -23 -34 -23 -449 0
-387 1 -419 19 -451 40 -76 147 -99 215 -47 59 46 61 51 66 306 l5 234 1245
-1038 c685 -571 1245 -1041 1245 -1045 0 -4 -560 -474 -1245 -1044 l-1245
-1036 -5 232 c-5 252 -7 259 -63 302 -49 37 -102 42 -156 14 -82 -43 -81 -34
-81 -509 0 -415 0 -416 23 -449 42 -62 114 -84 180 -56 18 7 687 559 1487
1225 1505 1254 1500 1250 1500 1321 0 71 5 67 -1500 1321 -800 666 -1469 1218
-1487 1225 -44 19 -82 17 -123 -5z"/>
</g>
</svg>
