<?xml version="1.0" standalone="no"?>
<!DOCTYPE svg PUBLIC "-//W3C//DTD SVG 20010904//EN"
 "http://www.w3.org/TR/2001/REC-SVG-20010904/DTD/svg10.dtd">
<svg version="1.0" xmlns="http://www.w3.org/2000/svg"
 width="512.000000pt" height="512.000000pt" viewBox="0 0 512.000000 512.000000"
 preserveAspectRatio="xMidYMid meet">

<g transform="translate(0.000000,512.000000) scale(0.100000,-0.100000)"
fill="#1A7F72" stroke="none">
<path d="M3015 5106 c-16 -7 -685 -559 -1485 -1225 -1505 -1254 -1500 -1250
-1500 -1321 0 -71 -5 -67 1500 -1321 800 -666 1469 -1218 1487 -1225 66 -28
138 -6 181 56 22 33 22 34 22 453 0 413 0 420 -22 455 -45 72 -145 89 -215 36
-56 -42 -58 -50 -63 -302 l-5 -232 -1245 1036 c-685 570 -1245 1040 -1245
1044 0 4 560 474 1245 1044 l1245 1036 5 -232 c5 -254 7 -259 66 -305 66 -50
169 -30 213 40 20 33 21 45 21 454 0 419 0 420 -22 453 -43 62 -118 85 -183
56z"/>
<path d="M4893 5113 c-33 -7 -2965 -2453 -2980 -2486 -7 -16 -13 -46 -13 -67
0 -21 6 -51 13 -67 16 -35 2931 -2465 2977 -2481 18 -7 45 -12 60 -12 32 0 85
34 114 73 l21 28 0 2459 0 2459 -21 27 c-43 58 -104 82 -171 67z m-103 -2553
c0 -1144 -3 -2080 -6 -2080 -13 0 -2494 2074 -2492 2082 4 11 2480 2077 2491
2078 4 0 7 -936 7 -2080z"/>
</g>
</svg>
