<svg fill="#000000" xmlns="http://www.w3.org/2000/svg"  viewBox="0 0 100 100" width="100px" height="100px"><path d="M 30 17 C 22.854545 17 17 22.854545 17 30 L 17 69 C 17 76.145455 22.854545 82 30 82 L 69 82 C 76.145455 82 82 76.145455 82 69 L 82 30 C 82 22.854545 76.145455 17 69 17 L 30 17 z M 30 19 L 69 19 C 75.054545 19 80 23.945455 80 30 L 80 69 C 80 75.054545 75.054545 80 69 80 L 30 80 C 23.945455 80 19 75.054545 19 69 L 19 30 C 19 23.945455 23.945455 19 30 19 z M 32.5 22 C 26.727273 22 22 26.727273 22 32.5 L 22 66.5 C 22 72.272727 26.727273 77 32.5 77 L 66.5 77 C 72.272727 77 77 72.272727 77 66.5 L 77 63.5 A 0.50005 0.50005 0 1 0 76 63.5 L 76 66.5 C 76 71.727273 71.727273 76 66.5 76 L 32.5 76 C 27.272727 76 23 71.727273 23 66.5 L 23 32.5 C 23 27.272727 27.272727 23 32.5 23 L 66.5 23 A 0.50005 0.50005 0 1 0 66.5 22 L 32.5 22 z M 76.492188 51.992188 A 0.50005 0.50005 0 0 0 76 52.5 L 76 54.5 A 0.50005 0.50005 0 1 0 77 54.5 L 77 52.5 A 0.50005 0.50005 0 0 0 76.492188 51.992188 z M 76.492188 56.992188 A 0.50005 0.50005 0 0 0 76 57.5 L 76 60.5 A 0.50005 0.50005 0 1 0 77 60.5 L 77 57.5 A 0.50005 0.50005 0 0 0 76.492188 56.992188 z"/></svg>