<?xml version="1.0" standalone="no"?>
<!DOCTYPE svg PUBLIC "-//W3C//DTD SVG 20010904//EN"
 "http://www.w3.org/TR/2001/REC-SVG-20010904/DTD/svg10.dtd">
<svg version="1.0" xmlns="http://www.w3.org/2000/svg"
 width="512.000000pt" height="512.000000pt" viewBox="0 0 512.000000 512.000000"
 preserveAspectRatio="xMidYMid meet">

<g transform="translate(0.000000,512.000000) scale(0.100000,-0.100000)"
fill="#1A7F72" stroke="none">
<path d="M2727 4189 c-32 -11 -77 -31 -100 -46 -23 -14 -310 -196 -638 -404
l-595 -379 -325 0 c-256 0 -337 -3 -382 -15 -173 -45 -307 -178 -352 -350 -22
-87 -22 -783 0 -870 45 -172 179 -305 352 -350 45 -12 126 -15 382 -15 l324 0
638 -405 c363 -232 660 -414 690 -425 229 -80 475 22 583 241 20 41 41 98 46
128 6 34 10 505 10 1275 0 1051 -2 1230 -15 1279 -42 163 -161 290 -316 338
-84 26 -224 25 -302 -2z m238 -318 c16 -9 40 -35 52 -57 l23 -39 0 -1213 c0
-1191 0 -1214 -20 -1252 -33 -66 -108 -100 -176 -81 -19 5 -307 182 -639 393
l-604 383 0 555 0 555 590 375 c325 206 607 383 627 393 43 20 100 16 147 -12z
m-1685 -1311 l0 -481 -269 3 c-254 3 -271 4 -297 24 -15 11 -37 33 -48 48 -20
26 -21 42 -24 379 -2 194 0 366 3 384 7 40 49 91 90 109 22 10 96 13 288 14
l257 0 0 -480z"/>
<path d="M4138 3820 c-43 -23 -65 -51 -79 -102 -14 -55 3 -107 57 -170 167
-194 291 -458 340 -723 26 -138 26 -392 0 -530 -49 -265 -173 -529 -340 -723
-54 -63 -71 -115 -57 -169 15 -53 36 -80 83 -104 50 -25 116 -22 157 8 75 56
218 257 304 429 320 634 243 1394 -198 1964 -106 136 -176 168 -267 120z"/>
<path d="M3730 3319 c-60 -24 -100 -85 -100 -152 0 -37 9 -58 52 -123 114
-174 152 -297 152 -484 0 -187 -38 -310 -152 -484 -44 -67 -52 -86 -52 -126 0
-116 115 -190 223 -142 99 44 238 301 289 537 7 34 13 126 13 215 0 163 -9
221 -52 355 -56 173 -174 363 -246 396 -46 20 -88 23 -127 8z"/>
</g>
</svg>
