<?xml version="1.0" standalone="no"?>
<!DOCTYPE svg PUBLIC "-//W3C//DTD SVG 20010904//EN"
 "http://www.w3.org/TR/2001/REC-SVG-20010904/DTD/svg10.dtd">
<svg version="1.0" xmlns="http://www.w3.org/2000/svg"
 width="512.000000pt" height="512.000000pt" viewBox="0 0 512.000000 512.000000"
 preserveAspectRatio="xMidYMid meet">

<g transform="translate(0.000000,512.000000) scale(0.100000,-0.100000)"
fill="#006600" stroke="none">
<path d="M1281 4614 c-24 -31 -25 -37 -10 -67 16 -30 28 -37 66 -37 56 0 84
69 43 110 -29 29 -74 26 -99 -6z"/>
<path d="M642 4544 c-171 -85 -171 -333 0 -418 221 -110 441 138 305 342 -65
97 -197 130 -305 76z m153 -119 c74 -36 74 -144 -2 -180 -93 -45 -185 68 -122
149 36 46 72 55 124 31z"/>
<path d="M2045 4405 c-314 -51 -585 -178 -818 -382 -376 -330 -583 -837 -538
-1322 27 -295 100 -500 290 -808 71 -116 229 -483 285 -664 61 -197 106 -471
106 -652 0 -44 5 -62 20 -77 20 -20 33 -20 888 -20 815 0 870 1 884 18 8 9 18
24 21 33 3 9 -17 104 -44 210 -26 107 -49 200 -49 207 0 9 31 12 123 12 183 0
291 35 398 128 122 107 169 224 176 443 l6 147 81 4 c95 5 145 27 198 86 51
56 71 117 66 196 -4 60 -15 88 -121 303 l-116 238 -16 200 c-33 429 -50 517
-134 725 -85 209 -202 380 -372 545 -57 55 -142 127 -188 160 -170 119 -391
213 -601 257 -129 26 -419 33 -545 13z m470 -141 c140 -21 258 -59 400 -128
321 -157 566 -415 708 -746 64 -150 99 -311 112 -520 3 -52 12 -167 21 -255
l14 -160 121 -245 c111 -225 120 -249 114 -284 -5 -23 -20 -51 -40 -70 -37
-37 -77 -46 -205 -46 -60 0 -81 -4 -91 -16 -10 -13 -15 -68 -19 -213 -5 -195
-5 -196 -37 -263 -58 -122 -161 -199 -296 -219 -34 -5 -128 -9 -209 -9 l-148
0 -17 -26 c-16 -26 -15 -33 32 -223 26 -108 50 -204 53 -214 4 -16 -35 -17
-759 -15 l-764 3 -2 50 c-15 305 -83 576 -234 936 -95 228 -121 280 -207 418
-113 183 -181 351 -219 538 -24 124 -25 414 0 537 40 197 112 371 224 540 84
127 273 318 393 398 323 214 672 291 1055 232z"/>
<path d="M2156 4029 c-612 -60 -1086 -586 -1086 -1205 0 -455 264 -876 678
-1083 270 -135 611 -157 912 -59 336 108 632 398 754 735 157 439 50 924 -279
1259 -254 258 -616 388 -979 353z m339 -153 c417 -90 735 -407 833 -831 11
-49 16 -116 16 -225 -1 -134 -5 -168 -28 -255 -62 -235 -201 -445 -389 -588
-194 -148 -403 -218 -653 -218 -491 0 -899 317 -1036 806 -29 103 -36 341 -14
459 53 278 217 530 450 688 123 84 300 154 452 178 80 12 283 5 369 -14z"/>
<path d="M2128 3432 c-124 -130 -224 -305 -244 -428 l-6 -39 -126 0 c-141 -1
-251 -18 -285 -45 -18 -15 -21 -27 -19 -73 3 -66 41 -221 75 -306 79 -195 211
-326 390 -386 111 -37 374 -61 512 -46 132 14 203 33 301 81 183 89 309 279
363 547 36 176 29 193 -90 214 -64 11 -287 16 -357 7 -22 -3 -26 4 -42 68 -36
139 -124 281 -256 412 -101 99 -115 99 -216 -6z m216 -202 c58 -75 91 -135
115 -208 32 -95 30 -105 -35 -142 -31 -17 -75 -49 -99 -71 l-44 -41 -62 51
c-35 28 -96 65 -136 83 l-73 33 6 35 c17 93 79 211 168 321 l49 60 34 -33 c19
-18 54 -58 77 -88z m-429 -415 c93 -20 180 -64 234 -119 l44 -45 -36 -80 c-39
-85 -87 -238 -87 -277 0 -36 -21 -39 -99 -15 -132 40 -231 128 -299 266 -32
65 -66 166 -77 232 -6 41 -6 42 27 46 79 9 228 5 293 -8z m1050 3 c8 -8 -32
-157 -62 -228 -73 -177 -183 -277 -358 -324 -69 -19 -313 -32 -333 -18 -11 8
-9 27 12 108 71 267 201 410 417 459 60 14 311 16 324 3z"/>
<path d="M4156 4349 c-26 -20 -26 -22 -26 -150 0 -116 2 -131 20 -149 29 -29
74 -26 100 7 20 26 21 37 18 151 -3 116 -4 125 -27 143 -30 24 -52 24 -85 -2z"/>
<path d="M3816 4009 c-35 -28 -35 -70 0 -98 24 -19 40 -21 144 -21 104 0 120
2 144 21 33 26 34 62 1 94 -23 24 -30 25 -143 25 -106 0 -122 -2 -146 -21z"/>
<path d="M4305 4018 c-11 -6 -23 -16 -27 -22 -14 -21 -8 -66 12 -86 18 -18 33
-20 145 -20 120 0 127 1 150 25 14 13 25 33 25 45 0 12 -11 32 -25 45 -23 24
-30 25 -142 25 -69 0 -126 -5 -138 -12z"/>
<path d="M4150 3870 c-18 -18 -20 -33 -20 -148 0 -121 1 -130 23 -150 30 -29
62 -28 92 3 24 23 25 30 25 143 0 106 -2 122 -21 146 -25 32 -70 35 -99 6z"/>
<path d="M4429 3192 c-45 -38 -16 -122 43 -122 25 0 68 44 68 70 0 26 -43 70
-68 70 -11 0 -30 -8 -43 -18z"/>
<path d="M669 1549 c-28 -28 -22 -76 12 -102 45 -33 99 -1 99 58 0 59 -69 86
-111 44z"/>
<path d="M4189 1360 c-120 -22 -214 -152 -193 -268 29 -160 194 -247 339 -178
60 28 87 56 114 116 78 171 -74 365 -260 330z m91 -145 c37 -19 50 -43 50 -93
0 -70 -70 -115 -135 -88 -40 17 -56 38 -62 83 -4 29 0 44 17 66 37 47 81 57
130 32z"/>
<path d="M3810 730 c-47 -47 -8 -116 62 -111 48 3 67 87 26 115 -31 22 -64 20
-88 -4z"/>
</g>
</svg>
