<svg width="41" height="35" viewBox="0 0 41 35" fill="#1A7F72" xmlns="http://www.w3.org/2000/svg">
<path d="M25.3516 0.779734C25.1268 0.674975 24.8784 0.631506 24.6314 0.653733C24.3844 0.675959 24.1477 0.763092 23.9453 0.906296L13.0047 9.06254H2.21875C1.84579 9.06254 1.4881 9.2107 1.22438 9.47443C0.960658 9.73815 0.8125 10.0958 0.8125 10.4688V24.5313C0.8125 24.9043 0.960658 25.2619 1.22438 25.5257C1.4881 25.7894 1.84579 25.9375 2.21875 25.9375H13.0047L23.875 34.0938C24.0839 34.2505 24.3324 34.3459 24.5925 34.3694C24.8526 34.3928 25.1141 34.3434 25.3476 34.2266C25.5812 34.1098 25.7777 33.9303 25.915 33.7081C26.0523 33.486 26.125 33.2299 26.125 32.9688V2.0313C26.1242 1.77161 26.0515 1.51721 25.915 1.2963C25.7785 1.07539 25.5835 0.896593 25.3516 0.779734Z" fill="#3EB29D"/>
<path d="M36.5453 17.5L39.7656 14.2797C39.996 14.0107 40.1164 13.6646 40.1027 13.3107C40.089 12.9568 39.9423 12.6211 39.6919 12.3706C39.4414 12.1202 39.1057 11.9735 38.7518 11.9598C38.3979 11.9461 38.0518 12.0665 37.7828 12.2969L34.5625 15.5172L31.3422 12.2969C31.0732 12.0665 30.7271 11.9461 30.3732 11.9598C30.0193 11.9735 29.6836 12.1202 29.4331 12.3706C29.1827 12.6211 29.036 12.9568 29.0223 13.3107C29.0086 13.6646 29.129 14.0107 29.3594 14.2797L32.5797 17.5L29.3594 20.7203C29.2122 20.8464 29.0926 21.0015 29.0082 21.176C28.9238 21.3505 28.8764 21.5405 28.8689 21.7342C28.8614 21.9278 28.894 22.1209 28.9647 22.3014C29.0354 22.4819 29.1427 22.6458 29.2797 22.7828C29.4168 22.9198 29.5806 23.0271 29.7611 23.0978C29.9416 23.1685 30.1347 23.2011 30.3284 23.1936C30.522 23.1861 30.7121 23.1387 30.8865 23.0543C31.061 22.9699 31.2161 22.8503 31.3422 22.7031L34.5625 19.4828L37.7828 22.7031C38.0518 22.9335 38.3979 23.0539 38.7518 23.0402C39.1057 23.0266 39.4414 22.8798 39.6919 22.6294C39.9423 22.379 40.089 22.0432 40.1027 21.6893C40.1164 21.3354 39.996 20.9893 39.7656 20.7203L36.5453 17.5Z" fill="#3EB29D"/>
</svg>
