<svg width="22" height="26" viewBox="0 0 22 26" fill="none" xmlns="http://www.w3.org/2000/svg">
<path d="M21.0391 11.2917L3.04297 0.293693C2.73985 0.108332 2.39281 0.00708138 2.03757 0.000358121C1.68232 -0.00636514 1.3317 0.081682 1.02178 0.25544C0.711864 0.429199 0.453834 0.682393 0.274246 0.988971C0.0946579 1.29555 -3.82063e-06 1.64444 8.29889e-09 1.99975L9.83133e-08 23.9978C0.000289199 24.353 0.0951336 24.7017 0.27479 25.0081C0.454446 25.3145 0.712437 25.5676 1.02226 25.7413C1.33208 25.915 1.68255 26.003 2.03768 25.9965C2.39281 25.9899 2.73979 25.8889 3.04297 25.7038L21.0391 14.7058C21.3314 14.527 21.5729 14.2762 21.7405 13.9773C21.9081 13.6784 21.9961 13.3414 21.9961 12.9988C21.9961 12.6561 21.9081 12.3192 21.7405 12.0203C21.5729 11.7214 21.3314 11.4705 21.0391 11.2917Z" fill="#1A7F72"/>
</svg>
